<?xml version="1.0" encoding="UTF-8"?>
<!DOCTYPE svg PUBLIC "-//W3C//DTD SVG 1.1//EN" "http://www.w3.org/Graphics/SVG/1.1/DTD/svg11.dtd">
<svg xmlns="http://www.w3.org/2000/svg" xml:space="preserve" width="20.0759mm" height="25.0761mm" version="1.1" style="shape-rendering:geometricPrecision; text-rendering:geometricPrecision; image-rendering:optimizeQuality; fill-rule:evenodd; clip-rule:evenodd"
viewBox="0 0 374.48 467.74"
 xmlns:xlink="http://www.w3.org/1999/xlink"
 xmlns:xodm="http://www.corel.com/coreldraw/odm/2003">
 <defs>
  <style type="text/css">
   <![CDATA[
    .str0 {stroke:#2B2B2A;stroke-width:1.42;stroke-miterlimit:22.9256}
    .fil3 {fill:#E31F25}
    .fil1 {fill:#273464}
    .fil2 {fill:url(#id0)}
    .fil0 {fill:url(#id1)}
    .fil4 {fill:url(#id2)}
    .fil5 {fill:url(#id3)}
    .fil6 {fill:url(#id4)}
   ]]>
  </style>
  <linearGradient id="id0" gradientUnits="userSpaceOnUse" x1="1347.9" y1="1626.33" x2="-1056.57" y2="-1072.28">
   <stop offset="0" style="stop-opacity:1; stop-color:#D29400"/>
   <stop offset="0.478431" style="stop-opacity:1; stop-color:#FDFFCB"/>
   <stop offset="0.988235" style="stop-opacity:1; stop-color:white"/>
   <stop offset="1" style="stop-opacity:1; stop-color:white"/>
  </linearGradient>
  <linearGradient id="id1" gradientUnits="userSpaceOnUse" xlink:href="#id0" x1="1347.9" y1="1626.33" x2="-1056.57" y2="-1072.28">
  </linearGradient>
  <linearGradient id="id2" gradientUnits="userSpaceOnUse" xlink:href="#id0" x1="1347.9" y1="1626.33" x2="-1056.57" y2="-1072.28">
  </linearGradient>
  <linearGradient id="id3" gradientUnits="userSpaceOnUse" xlink:href="#id0" x1="1347.9" y1="1626.33" x2="-1056.57" y2="-1072.28">
  </linearGradient>
  <linearGradient id="id4" gradientUnits="userSpaceOnUse" xlink:href="#id0" x1="1347.89" y1="1626.39" x2="-1056.56" y2="-1072.33">
  </linearGradient>
 </defs>
 <g>
  <metadata id="CorelCorpID_0Corel-Layer"/>
  <path class="fil0 str0" d="M179.9 463.85c-155.5,-83.73 -185.49,-219.65 -178.19,-384.85l0.33 -7.37c0.12,-2.65 1.92,-4.82 4.5,-5.42l7.17 -1.66c32.06,-7.44 54.74,-20.4 65.49,-53.15l2.19 -6.68c0.8,-2.43 2.97,-4.01 5.52,-4.01l7.01 0c62.22,0 124.43,0 186.65,0l7.01 0c2.55,0 4.72,1.57 5.52,4.01l2.19 6.68c10.75,32.75 33.43,45.71 65.49,53.15l7.17 1.66c2.58,0.6 4.38,2.77 4.5,5.42l0.33 7.37c7.34,165.21 -22.7,301.13 -178.19,384.86l-4.58 2.47c-1.77,0.95 -3.73,0.95 -5.5,0l-4.58 -2.47z"/>
  <path class="fil1 str0" d="M93.91 16.25c-13.32,40.57 -42.78,55.56 -76.72,63.43 -6.71,151.23 15.89,287.49 170.04,370.47 154.14,-82.98 176.74,-219.24 170.04,-370.47 -33.94,-7.88 -63.4,-22.86 -76.72,-63.43 -62.21,0 -124.43,0 -186.65,0z"/>
  <path class="fil2 str0" d="M116.64 51.23c-14.81,26.68 -37.2,43.87 -65.42,54.65 -2.7,127.55 20.81,234 136.01,304.03 115.2,-70.03 138.71,-176.48 136.02,-304.03 -28.23,-10.78 -50.62,-27.97 -65.43,-54.65 -47.06,0 -94.12,0 -141.18,0z"/>
  <path class="fil3 str0" d="M122.19 60.94c-14.74,24.02 -35.67,40.57 -61.4,51.54 -0.87,60.58 4.26,124.53 30.29,179.88 21.37,45.44 54.25,79.61 96.15,106.12 41.91,-26.5 74.78,-60.67 96.15,-106.12 26.03,-55.35 31.16,-119.3 30.29,-179.88 -25.74,-10.97 -46.66,-27.52 -61.41,-51.54 -43.36,0 -86.72,0 -130.08,0z"/>
  <path class="fil4 str0" d="M87.64 341.71c-1.29,0.78 -2.71,1.37 -4.23,1.49 -1.36,0.1 -2.64,-0.18 -3.81,-0.87 -1.28,-0.75 -2.26,-1.88 -3.03,-3.13l-6.8 -11.19c-0.08,-0.12 -0.04,-0.29 0.09,-0.36l3.49 -2.12c0.12,-0.07 0.29,-0.03 0.36,0.09l6.85 11.26c0.49,0.81 1.16,1.49 2.11,1.71 0.96,0.22 1.9,-0.1 2.71,-0.6 0.82,-0.5 1.55,-1.18 1.8,-2.14 0.24,-0.94 -0.04,-1.85 -0.53,-2.66l-6.85 -11.27c-0.07,-0.12 -0.04,-0.29 0.09,-0.36l3.48 -2.12c0.13,-0.08 0.29,-0.04 0.36,0.09l6.8 11.18c0.76,1.26 1.31,2.65 1.38,4.14 0.07,1.36 -0.28,2.63 -1,3.79 -0.81,1.29 -1.99,2.29 -3.28,3.07zm38.32 40.47l5.77 5.32c0.1,0.1 0.11,0.26 0.01,0.37l-2.76 3c-0.1,0.11 -0.27,0.11 -0.37,0.01l-5.77 -5.32 -13.52 -3.83c-0.09,-0.03 -0.15,-0.09 -0.18,-0.18 -0.03,-0.09 -0,-0.18 0.06,-0.25l2.89 -3.14c0.07,-0.08 0.18,-0.1 0.28,-0.07l8.76 2.77 -3.48 -8.5c-0.04,-0.1 -0.02,-0.2 0.05,-0.28l2.89 -3.14c0.06,-0.07 0.15,-0.1 0.25,-0.08 0.09,0.02 0.16,0.08 0.2,0.17l4.92 13.16zm12.29 14.31c0.47,-0.66 1.02,-1.28 1.61,-1.83 0.62,-0.58 1.29,-1.09 2.01,-1.55 0.72,-0.45 1.48,-0.84 2.26,-1.15 0.13,-0.05 0.27,0 0.33,0.12l1.67 3.3c0.04,0.07 0.04,0.14 0.01,0.21 -0.03,0.07 -0.08,0.12 -0.15,0.15 -0.88,0.35 -1.71,0.8 -2.48,1.37 -0.69,0.51 -1.32,1.11 -1.82,1.81 -0.51,0.73 -1.07,1.68 -1.15,2.58 -0.06,0.64 0.11,1.17 0.64,1.55l0.01 0.01c0.38,0.26 0.79,0.42 1.25,0.32 0.47,-0.09 0.89,-0.3 1.27,-0.59 0.58,-0.45 1.14,-0.99 1.75,-1.57 0.03,-0.04 0.07,-0.07 0.1,-0.1 0.04,-0.04 0.08,-0.08 0.14,-0.13 0.04,-0.03 0.08,-0.06 0.12,-0.11 0.85,-0.83 1.78,-1.65 2.77,-2.3 0.88,-0.57 1.84,-0.87 2.89,-0.91 1.23,-0.05 2.4,0.5 3.38,1.19l0.03 0.02c1.03,0.73 1.84,1.66 2.28,2.85 0.44,1.2 0.42,2.45 0.12,3.69 -0.36,1.49 -1.13,2.9 -2.01,4.15 -0.6,0.85 -1.27,1.63 -2.03,2.34 -0.72,0.68 -1.51,1.29 -2.35,1.8 -0.79,0.48 -1.64,0.87 -2.53,1.14 -0.13,0.04 -0.26,-0.02 -0.32,-0.14l-1.51 -3.39c-0.03,-0.07 -0.03,-0.15 0,-0.22 0.03,-0.07 0.09,-0.12 0.16,-0.14 1.02,-0.31 1.96,-0.81 2.81,-1.45 0.9,-0.67 1.67,-1.47 2.32,-2.39 0.56,-0.79 1.13,-1.79 1.22,-2.77 0.06,-0.71 -0.14,-1.29 -0.73,-1.71l-0.01 -0.01c-0.35,-0.24 -0.72,-0.38 -1.15,-0.3 -0.45,0.08 -0.84,0.31 -1.19,0.59 -0.52,0.42 -1.01,0.91 -1.51,1.42 -0.03,0.04 -0.06,0.08 -0.09,0.1l-0.22 0.24c-0.85,0.89 -1.78,1.78 -2.77,2.51 -0.87,0.63 -1.86,0.97 -2.93,1.04 -1.3,0.09 -2.54,-0.49 -3.58,-1.23l-0.01 -0.01c-1.03,-0.73 -1.87,-1.66 -2.33,-2.85 -0.45,-1.17 -0.47,-2.4 -0.2,-3.62 0.33,-1.46 1.07,-2.84 1.93,-4.05zm-33.5 -38.81l9.06 3.07c0.09,0.03 0.15,0.1 0.17,0.2 0.02,0.1 -0.01,0.19 -0.09,0.25l-3.8 3.16c-0.07,0.06 -0.17,0.08 -0.26,0.04l-8.89 -3.17 -1.58 1.32 5.11 6.14c0.09,0.11 0.08,0.28 -0.03,0.37l-3.13 2.61c-0.11,0.1 -0.28,0.08 -0.37,-0.03l-13.14 -15.77c-0.09,-0.11 -0.08,-0.28 0.04,-0.37l7.28 -6.07c0.88,-0.73 1.89,-1.27 3.02,-1.48 1.08,-0.2 2.12,-0.08 3.14,0.33 1.09,0.44 1.99,1.18 2.74,2.08 0.75,0.9 1.31,1.91 1.54,3.07 0.22,1.07 0.14,2.12 -0.25,3.14 -0.15,0.39 -0.34,0.76 -0.56,1.11zm-8.1 1.62l3.7 -3.08c0.26,-0.22 0.46,-0.49 0.57,-0.82 0.11,-0.32 0.1,-0.64 0.02,-0.97 -0.1,-0.39 -0.3,-0.74 -0.54,-1.04 -0.25,-0.31 -0.56,-0.57 -0.92,-0.74 -0.31,-0.14 -0.63,-0.2 -0.96,-0.16 -0.34,0.05 -0.65,0.21 -0.91,0.43l-3.7 3.08 2.75 3.3zm90.58 77.26c3.61,0 6.53,-2.92 6.53,-6.53 0,-3.61 -2.92,-6.53 -6.53,-6.53 -3.61,0 -6.53,2.92 -6.53,6.53 0,3.61 2.92,6.53 6.53,6.53zm-150.63 -315.18l-2.89 -7.83 -2.89 7.83 5.79 0zm1.2 3.26l-8.2 0 -0.83 2.25c-0.04,0.11 -0.14,0.17 -0.25,0.17l-4.39 0c-0.09,0 -0.17,-0.04 -0.22,-0.12 -0.05,-0.07 -0.06,-0.16 -0.03,-0.25l8.28 -20.51c0.04,-0.1 0.13,-0.17 0.24,-0.17l2.59 0c0.11,0 0.2,0.06 0.25,0.17l8.28 20.51c0.03,0.08 0.02,0.17 -0.03,0.25 -0.05,0.07 -0.13,0.12 -0.22,0.12l-4.39 0c-0.11,0 -0.21,-0.07 -0.25,-0.17l-0.83 -2.25zm-6.28 -24.61l4.11 -3.45c0.1,-0.09 0.26,-0.08 0.35,0.01l2.71 2.63c0.06,0.06 0.09,0.13 0.08,0.21 -0.01,0.08 -0.04,0.15 -0.11,0.19l-4.39 3.19c-0.1,0.08 -0.25,0.07 -0.34,-0.02l-2.43 -2.37c-0.06,-0.05 -0.08,-0.12 -0.08,-0.2 0,-0.08 0.04,-0.14 0.09,-0.19zm2.61 37.79c0.82,-0.03 1.63,0.02 2.44,0.16 0.83,0.14 1.65,0.35 2.45,0.64 0.8,0.29 1.57,0.66 2.3,1.09 0.12,0.07 0.16,0.22 0.1,0.34l-1.59 3.34c-0.03,0.07 -0.09,0.12 -0.16,0.14 -0.07,0.02 -0.15,0.01 -0.21,-0.03 -0.81,-0.48 -1.69,-0.87 -2.6,-1.13 -0.83,-0.24 -1.68,-0.37 -2.54,-0.33 -0.89,0.04 -1.98,0.18 -2.75,0.66 -0.54,0.34 -0.86,0.8 -0.83,1.45l0 0.01c0.02,0.46 0.15,0.88 0.51,1.19 0.36,0.32 0.78,0.53 1.24,0.65 0.72,0.18 1.48,0.3 2.31,0.42 0.05,0 0.1,0.01 0.14,0.01 0.06,0.01 0.11,0.02 0.19,0.03 0.05,0.01 0.1,0.02 0.15,0.03 1.18,0.17 2.39,0.4 3.51,0.79 0.99,0.34 1.82,0.93 2.49,1.73 0.79,0.95 1.07,2.2 1.12,3.41l0 0.03c0.05,1.26 -0.19,2.47 -0.87,3.55 -0.69,1.08 -1.69,1.83 -2.84,2.35 -1.4,0.62 -2.99,0.87 -4.52,0.94 -1.04,0.04 -2.07,-0.01 -3.1,-0.18 -0.98,-0.15 -1.94,-0.4 -2.87,-0.76 -0.86,-0.34 -1.69,-0.77 -2.44,-1.31 -0.11,-0.08 -0.14,-0.22 -0.08,-0.34l1.76 -3.26c0.04,-0.07 0.1,-0.12 0.17,-0.13 0.08,-0.02 0.15,-0 0.21,0.04 0.87,0.62 1.84,1.05 2.86,1.34 1.08,0.3 2.19,0.43 3.31,0.38 0.96,-0.04 2.11,-0.2 2.93,-0.73 0.6,-0.38 0.94,-0.9 0.91,-1.62l-0 -0.01c-0.02,-0.42 -0.14,-0.8 -0.46,-1.09 -0.34,-0.3 -0.76,-0.48 -1.2,-0.59 -0.65,-0.16 -1.34,-0.25 -2.04,-0.33 -0.06,0 -0.1,-0 -0.14,-0.01l-0.32 -0.03c-1.22,-0.13 -2.5,-0.32 -3.68,-0.67 -1.03,-0.3 -1.9,-0.88 -2.62,-1.68 -0.86,-0.98 -1.16,-2.31 -1.21,-3.58l-0 -0.01c-0.05,-1.26 0.18,-2.49 0.84,-3.58 0.65,-1.08 1.61,-1.84 2.74,-2.37 1.36,-0.63 2.9,-0.88 4.38,-0.94zm-2.1 41.9l5.76 -9.98c0.05,-0.08 0.12,-0.12 0.21,-0.13l5.12 -0.43c0.1,-0.01 0.19,0.04 0.25,0.13 0.05,0.09 0.05,0.19 -0,0.28l-5.6 8.82 8.21 11.24c0.06,0.08 0.07,0.18 0.03,0.27 -0.04,0.09 -0.12,0.14 -0.22,0.15l-4.83 0.4c-0.09,0.01 -0.18,-0.03 -0.24,-0.11l-5.62 -7.75 -2.49 3.92 0.36 4.34c0.01,0.15 -0.09,0.28 -0.24,0.29l-4.06 0.34c-0.15,0.01 -0.28,-0.1 -0.29,-0.24l-1.71 -20.43c-0.01,-0.15 0.1,-0.28 0.24,-0.29l4.07 -0.34c0.14,-0.01 0.27,0.1 0.28,0.24l0.78 9.28zm3.69 26.35l0.6 4.16 8.43 -1.22c0.14,-0.02 0.28,0.08 0.3,0.22l0.53 3.68c0.02,0.15 -0.08,0.28 -0.22,0.3l-8.43 1.22 0.58 4.03 10.05 -1.45c0.15,-0.02 0.28,0.08 0.3,0.22l0.53 3.68c0.02,0.15 -0.08,0.28 -0.23,0.3l-14.34 2.07c-0.14,0.02 -0.28,-0.08 -0.3,-0.22l-2.94 -20.29c-0.02,-0.15 0.08,-0.28 0.23,-0.3l14.34 -2.07c0.14,-0.02 0.28,0.08 0.3,0.22l0.54 3.68c0.02,0.15 -0.08,0.28 -0.23,0.3l-10.04 1.45zm24.42 76.97l-4.01 1.34c-0.14,0.05 -0.29,-0.03 -0.33,-0.16l-6.53 -19.44c-0.05,-0.14 0.03,-0.29 0.16,-0.33l4.01 -1.35c0.14,-0.05 0.29,0.03 0.33,0.17l6.53 19.44c0.05,0.14 -0.03,0.29 -0.16,0.33zm-9.96 -38.97l6.63 6.89c0.07,0.07 0.09,0.16 0.06,0.26 -0.03,0.09 -0.1,0.16 -0.2,0.18l-4.82 1.06c-0.09,0.02 -0.18,-0.01 -0.25,-0.08l-6.44 -6.9 -2.01 0.44 1.71 7.8c0.03,0.14 -0.06,0.28 -0.2,0.32l-3.99 0.87c-0.14,0.03 -0.28,-0.06 -0.31,-0.2l-4.4 -20.04c-0.03,-0.14 0.06,-0.28 0.2,-0.31l9.26 -2.04c1.12,-0.24 2.26,-0.26 3.36,0.07 1.05,0.32 1.92,0.9 2.63,1.73 0.76,0.89 1.23,1.96 1.48,3.11 0.25,1.14 0.28,2.3 -0.04,3.43 -0.29,1.05 -0.85,1.95 -1.67,2.68 -0.31,0.28 -0.65,0.52 -1.01,0.72zm-7.94 -2.29l4.7 -1.03c0.33,-0.07 0.63,-0.22 0.88,-0.46 0.24,-0.24 0.39,-0.52 0.46,-0.85 0.09,-0.39 0.08,-0.79 -0,-1.18 -0.09,-0.39 -0.24,-0.76 -0.48,-1.08 -0.21,-0.27 -0.46,-0.47 -0.78,-0.58 -0.33,-0.12 -0.67,-0.11 -1.01,-0.04l-4.7 1.03 0.92 4.2zm225.1 -197.07l4.28 0c0.15,0 0.26,-0.12 0.26,-0.26l0 -21.43c0,-0.15 -0.12,-0.26 -0.26,-0.26l-4.28 0c-0.15,0 -0.26,0.12 -0.26,0.26l0 21.43c0,0.15 0.12,0.26 0.26,0.26zm-80.48 -5.93l-3.02 -8.16 -3.02 8.16 6.04 0zm1.26 3.4l-8.55 0 -0.87 2.35c-0.04,0.11 -0.14,0.18 -0.26,0.18l-4.58 0c-0.09,0 -0.17,-0.04 -0.23,-0.12 -0.05,-0.08 -0.06,-0.17 -0.03,-0.26l8.63 -21.4c0.04,-0.11 0.14,-0.17 0.26,-0.17l2.7 0c0.12,0 0.21,0.07 0.26,0.17l8.63 21.4c0.03,0.09 0.02,0.18 -0.03,0.26 -0.05,0.08 -0.13,0.12 -0.23,0.12l-4.58 0c-0.12,0 -0.22,-0.07 -0.26,-0.18l-0.87 -2.35zm-72.25 -3.4l-3.02 -8.16 -3.02 8.16 6.04 0zm1.26 3.4l-8.55 0 -0.87 2.35c-0.04,0.11 -0.14,0.18 -0.26,0.18l-4.58 0c-0.09,0 -0.18,-0.04 -0.23,-0.12 -0.05,-0.08 -0.07,-0.17 -0.03,-0.26l8.63 -21.4c0.04,-0.11 0.14,-0.17 0.26,-0.17l2.7 0c0.11,0 0.21,0.07 0.26,0.17l8.64 21.4c0.03,0.09 0.02,0.18 -0.03,0.26 -0.05,0.08 -0.13,0.12 -0.23,0.12l-4.58 0c-0.12,0 -0.22,-0.07 -0.26,-0.18l-0.87 -2.35zm23.86 -6.4l5.21 8.51c0.05,0.09 0.06,0.19 0.01,0.28 -0.05,0.09 -0.14,0.14 -0.24,0.14l-5.15 0c-0.1,0 -0.18,-0.05 -0.24,-0.14l-5.01 -8.47 -2.15 0 0 8.33c0,0.15 -0.12,0.27 -0.27,0.27l-4.25 0c-0.15,0 -0.28,-0.12 -0.28,-0.27l0 -21.41c0,-0.15 0.12,-0.27 0.28,-0.27l9.89 0c1.2,0 2.36,0.24 3.41,0.83 0.99,0.56 1.76,1.35 2.3,2.35 0.58,1.08 0.81,2.27 0.81,3.49 0,1.22 -0.23,2.41 -0.81,3.49 -0.54,1.01 -1.31,1.79 -2.3,2.35 -0.38,0.21 -0.78,0.38 -1.19,0.51zm11.87 -13.02l7.47 0c1.67,0 3.4,0.23 4.93,0.92 1.32,0.59 2.41,1.48 3.16,2.73 0.79,1.31 1.08,2.78 1.08,4.29l0 6.07c0,1.46 -0.3,2.89 -1.04,4.17 -0.73,1.26 -1.82,2.17 -3.13,2.79 -1.55,0.74 -3.32,0.98 -5.03,0.98l-7.45 0c-0.15,0 -0.27,-0.12 -0.27,-0.27l0 -21.4c0,-0.15 0.12,-0.27 0.27,-0.27zm57.14 13.87l-2.7 0c-0.15,0 -0.27,-0.12 -0.27,-0.28l0 -3.22c0,-0.15 0.12,-0.28 0.27,-0.28l7.38 0c0.15,0 0.28,0.12 0.28,0.28l0 3.51c0,1.52 -0.3,3 -1.05,4.34 -0.71,1.26 -1.71,2.23 -2.99,2.92 -1.38,0.73 -2.9,1.03 -4.45,1.03 -1.55,0 -3.08,-0.27 -4.48,-0.96 -1.27,-0.63 -2.3,-1.53 -3.03,-2.75 -0.76,-1.25 -1.07,-2.64 -1.07,-4.1l0 -6.31c0,-1.52 0.31,-3 1.06,-4.33 0.71,-1.26 1.71,-2.23 2.99,-2.91 1.38,-0.74 2.89,-1.03 4.45,-1.03 1.33,0 2.63,0.26 3.84,0.81 1.94,0.89 3.71,2.96 4.17,5.1 0.02,0.08 0,0.16 -0.06,0.23 -0.05,0.07 -0.13,0.1 -0.21,0.1l-4.6 0c-0.12,0 -0.22,-0.07 -0.26,-0.18 -0.39,-0.9 -1.97,-1.33 -2.88,-1.33 -0.65,0 -1.29,0.12 -1.87,0.44 -0.53,0.29 -0.94,0.7 -1.23,1.23 -0.31,0.58 -0.44,1.22 -0.44,1.87l0 6.31c0,0.58 0.13,1.13 0.44,1.62 0.31,0.48 0.73,0.83 1.25,1.07 0.6,0.28 1.27,0.39 1.93,0.39 0.65,0 1.3,-0.11 1.88,-0.41 0.53,-0.28 0.93,-0.67 1.21,-1.19 0.31,-0.58 0.43,-1.23 0.43,-1.88l0 -0.08zm16.65 -9.43l0 4.39 8.88 0c0.15,0 0.27,0.12 0.27,0.27l0 3.88c0,0.15 -0.12,0.27 -0.27,0.27l-8.88 0 0 4.25 10.59 0c0.15,0 0.28,0.12 0.28,0.27l0 3.88c0,0.15 -0.12,0.27 -0.28,0.27l-15.12 0c-0.15,0 -0.28,-0.12 -0.28,-0.27l0 -21.4c0,-0.15 0.12,-0.27 0.28,-0.27l15.12 0c0.15,0 0.28,0.12 0.28,0.27l0 3.89c0,0.15 -0.12,0.28 -0.28,0.28l-10.59 0zm29.82 8.58l5.21 8.51c0.05,0.09 0.06,0.19 0.01,0.28 -0.05,0.09 -0.14,0.14 -0.24,0.14l-5.15 0c-0.1,0 -0.19,-0.05 -0.24,-0.14l-5.01 -8.47 -2.15 0 0 8.33c0,0.15 -0.12,0.27 -0.27,0.27l-4.26 0c-0.15,0 -0.27,-0.12 -0.27,-0.27l0 -21.41c0,-0.15 0.12,-0.27 0.27,-0.27l9.89 0c1.2,0 2.36,0.24 3.41,0.83 0.99,0.56 1.76,1.35 2.3,2.35 0.58,1.08 0.81,2.27 0.81,3.49 0,1.22 -0.24,2.41 -0.81,3.49 -0.54,1.01 -1.3,1.79 -2.3,2.35 -0.37,0.21 -0.78,0.38 -1.19,0.51zm-123.06 -4.11l5.02 0c0.36,0 0.69,-0.08 1,-0.27 0.3,-0.19 0.51,-0.45 0.67,-0.77 0.18,-0.38 0.26,-0.79 0.26,-1.2 0,-0.42 -0.07,-0.83 -0.25,-1.21 -0.15,-0.32 -0.36,-0.58 -0.67,-0.77 -0.31,-0.19 -0.65,-0.27 -1.01,-0.27l-5.02 0 0 4.48zm23.97 8.61l3.03 0c1.07,0 2.22,-0.19 3.07,-0.89 0.76,-0.64 1.05,-1.52 1.05,-2.5l0 -6.3c0,-0.98 -0.29,-1.86 -1.05,-2.5 -0.84,-0.7 -2,-0.89 -3.07,-0.89l-3.03 0 0 13.07zm91.51 -8.61l5.02 0c0.36,0 0.69,-0.08 1,-0.27 0.3,-0.19 0.51,-0.45 0.67,-0.77 0.18,-0.38 0.26,-0.79 0.26,-1.2 0,-0.42 -0.07,-0.83 -0.25,-1.21 -0.15,-0.32 -0.36,-0.58 -0.66,-0.77 -0.31,-0.19 -0.66,-0.27 -1.01,-0.27l-5.02 0 0 4.48zm48.63 46.61c3.61,0 6.53,-2.92 6.53,-6.53 0,-3.61 -2.92,-6.53 -6.53,-6.53 -3.61,0 -6.53,2.92 -6.53,6.53 0,3.61 2.92,6.53 6.53,6.53zm-220.58 0c-3.61,0 -6.53,-2.92 -6.53,-6.53 0,-3.61 2.92,-6.53 6.53,-6.53 3.61,0 6.53,2.92 6.53,6.53 0,3.61 -2.92,6.53 -6.53,6.53zm237.46 217.77l0.31 -8.34 -5.66 6.13 5.36 2.2zm-0.13 3.47l-7.58 -3.12 -1.63 1.76c-0.07,0.08 -0.19,0.11 -0.29,0.07l-4.05 -1.67c-0.09,-0.03 -0.14,-0.1 -0.16,-0.19 -0.02,-0.09 0.01,-0.17 0.07,-0.24l15.47 -15.81c0.07,-0.08 0.19,-0.1 0.29,-0.06l2.39 0.98c0.1,0.04 0.17,0.14 0.17,0.25l-0.16 22.11c-0.01,0.09 -0.04,0.17 -0.12,0.22 -0.08,0.05 -0.17,0.06 -0.25,0.03l-4.06 -1.68c-0.11,-0.04 -0.17,-0.14 -0.16,-0.25l0.09 -2.4zm28.44 -142.5l-4.23 -0.07c-0.14,-0 -0.26,-0.12 -0.26,-0.27l0.37 -20.5c0,-0.15 0.12,-0.26 0.27,-0.26l4.23 0.07c0.14,0 0.26,0.12 0.26,0.27l-0.37 20.5c-0,0.15 -0.12,0.26 -0.27,0.26zm1.98 16.55l-4.16 10.45c-0.04,0.11 -0.15,0.17 -0.26,0.16l-3.59 -0.23c-0.12,-0.01 -0.21,-0.08 -0.24,-0.2l-2.8 -10.66 -0.82 12.64c-0.01,0.15 -0.13,0.26 -0.28,0.25l-3.7 -0.24c-0.15,-0.01 -0.25,-0.14 -0.25,-0.29l1.32 -20.46c0.01,-0.15 0.13,-0.26 0.28,-0.25l5.36 0.34c0.12,0.01 0.21,0.09 0.24,0.21l3.03 13.2 4.69 -12.7c0.04,-0.11 0.15,-0.18 0.26,-0.17l5.36 0.34c0.15,0.01 0.26,0.14 0.25,0.29l-1.32 20.46c-0.01,0.15 -0.14,0.26 -0.28,0.25l-3.69 -0.24c-0.15,-0.01 -0.26,-0.14 -0.25,-0.28l0.83 -12.87zm-6.92 33.61l-1.13 7.77c-0.02,0.14 -0.15,0.24 -0.3,0.22l-4.03 -0.59c-0.15,-0.02 -0.24,-0.16 -0.22,-0.3l1.14 -7.77 -4.46 -13.32c-0.03,-0.09 -0.01,-0.18 0.04,-0.25 0.06,-0.07 0.15,-0.1 0.24,-0.09l4.22 0.62c0.11,0.01 0.19,0.08 0.22,0.18l2.66 8.8 5.06 -7.67c0.06,-0.09 0.16,-0.13 0.26,-0.12l4.23 0.62c0.09,0.01 0.17,0.07 0.2,0.16 0.04,0.09 0.03,0.18 -0.03,0.26l-8.09 11.49zm-11.21 32.12l9.92 2.13c0.14,0.03 0.23,0.17 0.21,0.31l-0.78 3.64c-0.03,0.15 -0.17,0.24 -0.32,0.21l-14.17 -3.04c-0.14,-0.03 -0.23,-0.17 -0.2,-0.32l4.31 -20.05c0.03,-0.14 0.17,-0.24 0.31,-0.21l3.99 0.86c0.14,0.03 0.23,0.17 0.21,0.32l-3.47 16.15zm-40.15 106.1l-4.51 6.42c-0.08,0.12 -0.25,0.15 -0.37,0.07l-3.34 -2.35c-0.12,-0.08 -0.15,-0.25 -0.06,-0.37l4.51 -6.43 2.02 -13.9c0.01,-0.09 0.07,-0.17 0.16,-0.2 0.09,-0.04 0.18,-0.03 0.26,0.02l3.49 2.45c0.08,0.06 0.12,0.16 0.11,0.26l-1.59 9.05 7.97 -4.57c0.09,-0.05 0.2,-0.05 0.28,0.01l3.5 2.46c0.07,0.05 0.11,0.14 0.11,0.23 -0.01,0.1 -0.06,0.17 -0.14,0.22l-12.4 6.61zm62.07 -222.75l2.43 1.74c0.06,0.04 0.1,0.1 0.11,0.18 0.01,0.07 -0.01,0.14 -0.06,0.2l-2.17 2.62c-0.09,0.11 -0.24,0.13 -0.36,0.04l-2.31 -1.66c-0.31,0.23 -0.65,0.44 -0.99,0.62 -1.32,0.69 -2.78,0.97 -4.26,0.97 -1.49,0 -2.94,-0.28 -4.27,-0.97 -1.23,-0.64 -2.2,-1.55 -2.89,-2.75 -0.72,-1.26 -1.01,-2.66 -1.01,-4.1l0 -5.81c0,-1.44 0.29,-2.84 1.01,-4.1 0.69,-1.2 1.66,-2.11 2.89,-2.76 1.33,-0.69 2.78,-0.97 4.27,-0.97 1.48,0 2.94,0.28 4.26,0.97 1.23,0.64 2.2,1.56 2.89,2.76 0.72,1.26 1.02,2.66 1.02,4.1l0 5.81c0,1.06 -0.16,2.11 -0.54,3.1zm-4.21 -3.02l0 -5.99c0,-0.61 -0.12,-1.22 -0.42,-1.76 -0.28,-0.51 -0.67,-0.89 -1.18,-1.16 -0.56,-0.3 -1.18,-0.41 -1.81,-0.41 -0.63,0 -1.25,0.11 -1.81,0.41 -0.51,0.27 -0.9,0.65 -1.18,1.16 -0.3,0.54 -0.42,1.15 -0.42,1.76l0 6.01c0,0.62 0.12,1.22 0.42,1.76 0.28,0.51 0.68,0.88 1.18,1.16 0.56,0.3 1.18,0.41 1.81,0.41 0.39,0 0.78,-0.04 1.15,-0.15l-1.95 -1.4c-0.06,-0.04 -0.1,-0.1 -0.11,-0.18 -0.01,-0.07 0.01,-0.14 0.06,-0.2l2.17 -2.61c0.09,-0.11 0.24,-0.13 0.36,-0.04l1.73 1.24zm-25.3 130.48l6.85 2.09c1.53,0.47 3.05,1.17 4.26,2.23 1.04,0.92 1.79,2.04 2.12,3.39 0.36,1.42 0.22,2.86 -0.21,4.24l-1.7 5.56c-0.41,1.34 -1.08,2.57 -2.12,3.53 -1.02,0.95 -2.27,1.48 -3.65,1.68 -1.63,0.24 -3.32,-0.03 -4.88,-0.51l-6.83 -2.09c-0.14,-0.05 -0.22,-0.2 -0.17,-0.33l6 -19.61c0.04,-0.14 0.19,-0.22 0.33,-0.18zm-0.77 17.32l2.78 0.85c0.98,0.3 2.09,0.45 3.06,0.04 0.88,-0.37 1.39,-1.1 1.67,-1.99l1.77 -5.77c0.28,-0.9 0.26,-1.79 -0.26,-2.59 -0.58,-0.88 -1.58,-1.37 -2.56,-1.68l-2.78 -0.85 -3.67 11.99zm-14.85 53.39l0.46 9.55c0,0.1 -0.04,0.18 -0.13,0.24 -0.08,0.05 -0.18,0.05 -0.26,0.01l-4.33 -2.37c-0.08,-0.04 -0.13,-0.13 -0.13,-0.22l-0.31 -9.43 -1.81 -0.99 -3.84 7.01c-0.07,0.13 -0.23,0.18 -0.36,0.1l-3.58 -1.96c-0.13,-0.07 -0.18,-0.23 -0.1,-0.36l9.86 -18c0.07,-0.13 0.23,-0.18 0.36,-0.1l8.31 4.56c1.01,0.55 1.87,1.29 2.48,2.27 0.58,0.92 0.86,1.95 0.84,3.04 -0.01,1.18 -0.37,2.28 -0.93,3.31 -0.56,1.03 -1.3,1.92 -2.28,2.56 -0.92,0.6 -1.93,0.91 -3.02,0.92 -0.42,0 -0.83,-0.04 -1.23,-0.12zm-4.47 -6.94l4.22 2.31c0.3,0.16 0.62,0.25 0.97,0.23 0.34,-0.02 0.63,-0.14 0.91,-0.34 0.32,-0.23 0.58,-0.55 0.78,-0.89 0.19,-0.35 0.33,-0.73 0.35,-1.13 0.01,-0.34 -0.04,-0.66 -0.21,-0.95 -0.17,-0.3 -0.43,-0.53 -0.73,-0.69l-4.22 -2.31 -2.06 3.77zm-76.3 98.4l11.18 -8.32c0.12,-0.09 0.28,-0.06 0.37,0.05l2.33 3.13c0.09,0.12 0.06,0.28 -0.06,0.37l-16.44 12.24c-0.12,0.09 -0.28,0.06 -0.37,-0.05l-3 -4.02c-0.06,-0.08 -0.07,-0.18 -0.02,-0.27l6.81 -14.01 -11 8.18c-0.12,0.09 -0.28,0.07 -0.37,-0.05l-2.33 -3.13c-0.09,-0.12 -0.06,-0.28 0.06,-0.37l16.44 -12.24c0.12,-0.09 0.28,-0.06 0.37,0.05l2.98 4c0.06,0.08 0.07,0.18 0.03,0.27l-6.97 14.17zm11.97 -16.65l5.22 1.23c0.13,0.03 0.22,0.16 0.2,0.29l-0.49 3.75c-0.01,0.08 -0.05,0.14 -0.12,0.19 -0.07,0.04 -0.14,0.05 -0.22,0.03l-5.18 -1.62c-0.12,-0.04 -0.2,-0.16 -0.18,-0.29l0.46 -3.37c0.01,-0.08 0.05,-0.14 0.11,-0.18 0.06,-0.04 0.13,-0.06 0.21,-0.04zm12.76 -6.86l-6 5.07c-0.11,0.09 -0.28,0.08 -0.37,-0.03l-2.63 -3.11c-0.1,-0.11 -0.08,-0.28 0.03,-0.37l6 -5.07 5.48 -12.94c0.04,-0.09 0.11,-0.14 0.2,-0.16 0.1,-0.01 0.18,0.02 0.24,0.09l2.76 3.26c0.07,0.08 0.08,0.18 0.04,0.28l-3.83 8.36 8.87 -2.4c0.1,-0.03 0.2,0 0.27,0.08l2.76 3.26c0.06,0.07 0.08,0.16 0.05,0.25 -0.03,0.09 -0.1,0.15 -0.19,0.17l-13.67 3.26zm21.48 -18.15l9.18 -10.48c0.1,-0.11 0.26,-0.12 0.37,-0.02l2.93 2.57c0.11,0.1 0.12,0.26 0.02,0.37l-13.51 15.42c-0.1,0.11 -0.26,0.12 -0.37,0.02l-3.77 -3.3c-0.07,-0.07 -0.11,-0.16 -0.08,-0.26l3.72 -15.13 -9.03 10.31c-0.1,0.11 -0.26,0.12 -0.37,0.03l-2.93 -2.57c-0.11,-0.1 -0.12,-0.26 -0.03,-0.37l13.51 -15.42c0.1,-0.11 0.26,-0.12 0.37,-0.02l3.75 3.28c0.07,0.07 0.11,0.16 0.08,0.26l-3.84 15.31z"/>
  <polygon class="fil5 str0" points="187.23,193.2 207.75,243.41 261.85,247.41 220.43,282.44 233.35,335.12 187.23,306.55 141.12,335.12 154.03,282.44 112.62,247.41 166.72,243.41 "/>
  <path class="fil6 str0" d="M151.24 155.09l-4.86 -13.14 -4.86 13.14 9.72 0zm3.17 8.58l-16.06 0 -1.91 5.17c-0.11,0.3 -0.38,0.49 -0.71,0.49l-9.03 0c-0.26,0 -0.48,-0.12 -0.62,-0.33 -0.14,-0.21 -0.17,-0.46 -0.07,-0.7l17.02 -42.16c0.12,-0.29 0.38,-0.47 0.7,-0.47l5.32 0c0.32,0 0.58,0.18 0.7,0.47l17.01 42.16c0.1,0.24 0.07,0.49 -0.07,0.7 -0.15,0.21 -0.37,0.33 -0.62,0.33l-9.02 0c-0.32,0 -0.6,-0.19 -0.7,-0.49l-1.91 -5.17zm117.71 6.09c-2.14,0 -4.28,-0.21 -6.38,-0.63 -2.02,-0.4 -3.98,-1.01 -5.87,-1.83 -1.76,-0.77 -3.44,-1.73 -4.96,-2.92 -0.3,-0.23 -0.38,-0.65 -0.19,-0.97l3.89 -6.56c0.12,-0.2 0.29,-0.32 0.51,-0.36 0.22,-0.04 0.42,0.01 0.6,0.15 1.71,1.33 3.64,2.29 5.7,2.96 2.17,0.71 4.41,1.05 6.69,1.05 1.93,0 4.28,-0.22 5.98,-1.21 1.2,-0.7 1.9,-1.66 1.9,-3.07 0,-0.82 -0.19,-1.58 -0.79,-2.17 -0.64,-0.63 -1.46,-1.01 -2.32,-1.26 -1.31,-0.38 -2.7,-0.62 -4.11,-0.84 -0.14,0 -0.25,-0.01 -0.31,-0.04l-0.65 -0.08c-2.51,-0.37 -5.13,-0.87 -7.54,-1.69 -2.13,-0.73 -3.9,-2.01 -5.32,-3.75 -1.73,-2.12 -2.23,-4.93 -2.23,-7.59 0,-2.65 0.58,-5.21 2.06,-7.44 1.45,-2.18 3.52,-3.7 5.93,-4.7 2.87,-1.19 6.08,-1.58 9.17,-1.58 1.69,0 3.38,0.2 5.03,0.54 1.71,0.36 3.39,0.88 5.01,1.55 1.62,0.68 3.18,1.49 4.65,2.45 0.33,0.21 0.44,0.64 0.26,0.98l-3.55 6.72c-0.1,0.19 -0.27,0.32 -0.48,0.37 -0.21,0.05 -0.42,0.02 -0.6,-0.1 -1.62,-1.06 -3.36,-1.91 -5.19,-2.52 -1.65,-0.55 -3.38,-0.89 -5.13,-0.89 -1.8,0 -4.01,0.19 -5.6,1.1 -1.08,0.61 -1.73,1.46 -1.73,2.73 0,0.9 0.21,1.73 0.87,2.37 0.69,0.66 1.51,1.1 2.42,1.38 1.45,0.44 3,0.74 4.67,1.06 0.11,0.01 0.22,0.03 0.31,0.05 0.12,0.02 0.24,0.05 0.4,0.08 0.1,0.02 0.19,0.05 0.3,0.07 2.41,0.45 4.9,1.04 7.19,1.94 2.04,0.8 3.72,2.1 5.05,3.84 1.57,2.06 2.06,4.69 2.06,7.23l0 0.06c0,2.63 -0.62,5.15 -2.13,7.33 -1.52,2.2 -3.67,3.68 -6.14,4.65 -2.96,1.17 -6.27,1.56 -9.44,1.56zm-29.82 -17.28l0 16.09c0,0.41 -0.34,0.75 -0.75,0.75l-8.38 0c-0.41,0 -0.75,-0.34 -0.75,-0.75l0 -16.09 -13.01 -25.73c-0.12,-0.24 -0.11,-0.51 0.03,-0.73 0.14,-0.23 0.37,-0.36 0.64,-0.36l8.78 0c0.3,0 0.55,0.16 0.68,0.43l7.83 16.69 7.82 -16.69c0.13,-0.27 0.38,-0.43 0.68,-0.43l8.78 0c0.27,0 0.5,0.13 0.64,0.36 0.14,0.23 0.15,0.49 0.03,0.73l-13.02 25.73zm-38.18 -9.11l-6.74 20.73c-0.1,0.32 -0.39,0.52 -0.72,0.52l-7.41 0c-0.33,0 -0.61,-0.2 -0.71,-0.51l-6.73 -20.28 0 24.74c0,0.41 -0.34,0.75 -0.75,0.75l-7.61 0c-0.41,0 -0.75,-0.34 -0.75,-0.75l0 -42.16c0,-0.41 0.34,-0.75 0.75,-0.75l11.04 0c0.34,0 0.62,0.21 0.72,0.54l7.76 26 7.75 -26c0.09,-0.32 0.38,-0.54 0.72,-0.54l11.05 0c0.41,0 0.75,0.34 0.75,0.75l0 42.16c0,0.41 -0.34,0.75 -0.75,0.75l-7.61 0c-0.41,0 -0.75,-0.34 -0.75,-0.75l0 -25.2zm-93.4 10.8l0 -27.76c0,-0.41 0.34,-0.75 0.75,-0.75l8.02 0c0.41,0 0.75,0.34 0.75,0.75l0 42.13c0,0.41 -0.34,0.75 -0.75,0.75l-10.31 0c-0.29,0 -0.54,-0.15 -0.67,-0.41l-14.34 -27.66 0 27.31c0,0.41 -0.34,0.75 -0.75,0.75l-8.01 0c-0.41,0 -0.75,-0.34 -0.75,-0.75l0 -42.13c0,-0.41 0.34,-0.75 0.75,-0.75l10.24 0c0.29,0 0.54,0.15 0.67,0.41l14.41 28.1z"/>
  <polygon class="fil3 str0" points="187.23,215.74 172.61,251.52 134.06,254.37 163.58,279.34 154.37,316.88 187.23,296.53 220.1,316.88 210.89,279.34 240.41,254.37 201.86,251.52 "/>
 </g>
</svg>
